<svg xmlns="http://www.w3.org/2000/svg" xmlns:xlink="http://www.w3.org/1999/xlink" width="230" height="153.936" viewBox="0 0 230 153.936">
  <defs>
    <linearGradient id="linear-gradient" x1="0.5" y1="1" x2="0.5" gradientUnits="objectBoundingBox">
      <stop offset="0" stop-color="gray" stop-opacity="0.251"/>
      <stop offset="0.54" stop-color="gray" stop-opacity="0.122"/>
      <stop offset="1" stop-color="gray" stop-opacity="0.102"/>
    </linearGradient>
  </defs>
  <g id="workout" transform="translate(-0.001 0)">
    <path id="Path_4" data-name="Path 4" d="M157.572,89.829c-14.745-.515-28.787-5.27-42.188-10.479S88.691,68.371,74.3,65.612c-9.267-1.775-19.853-2.024-27.312,2.941-7.177,4.775-9.5,13.02-10.742,20.668-.938,5.755-1.489,11.814,1.08,17.2,1.785,3.741,4.953,6.885,7.145,10.469,7.63,12.465,2.24,27.839-6.027,40.012-3.877,5.709-8.373,11.157-11.363,17.236s-4.374,13.044-1.757,19.245c2.6,6.145,8.774,10.762,15.469,14.008,13.6,6.588,29.623,8.482,45.249,9.552,34.59,2.366,69.364,1.341,104.046.315,12.834-.379,25.727-.765,38.351-2.749,7.013-1.1,14.252-2.851,19.342-7.075,6.462-5.36,8.063-14.437,3.733-21.161C244.252,175,224.165,172.2,219.093,160.1c-2.795-6.66.076-14.08,4.136-20.257,8.712-13.252,23.313-24.876,24.084-40.024.527-10.4-6.492-20.82-17.346-25.753-11.379-5.158-27.15-4.51-35.544,4.031C185.78,86.9,170.592,90.283,157.572,89.829Z" transform="translate(-23.94 -64.45)" fill="#333" opacity="0.1"/>
    <g id="Group_5" data-name="Group 5" transform="translate(92.197 80.362)" opacity="0.5">
      <path id="Path_5" data-name="Path 5" d="M469.6,402.58l-6.68.138-1.092,1.5v5.18l1.363.954H469.6l1.363-1.5v-4.909Z" transform="translate(-461.83 -402.574)" fill="#333"/>
      <path id="Path_6" data-name="Path 6" d="M497.22,467.825s-6.135.954-6.68,0l.138-.681L497.22,467Z" transform="translate(-489.588 -467)" fill="#fff" opacity="0.2"/>
      <path id="Path_7" data-name="Path 7" d="M496.272,542.086l1.09,1.092v5.19l-1.09,1.074s-3.953,1.364-6.544.271l-1.228-1.226V543.3l1.092-1.228Z" transform="translate(-487.955 -527.084)" fill="#333"/>
      <path id="Path_8" data-name="Path 8" d="M500.376,543.378s-4.771,1.09-6.406,0V542.15h6.68Z" transform="translate(-492.333 -527.148)" fill="#fff" opacity="0.2"/>
      <path id="Path_9" data-name="Path 9" d="M505.166,501.582v7.374A1.106,1.106,0,0,1,504.008,510h0a1.106,1.106,0,0,1-1.158-1.046v-7.374a1.12,1.12,0,0,1,1.294-1.04h0A1.09,1.09,0,0,1,505.166,501.582Z" transform="translate(-499.44 -493.84)" fill="#333"/>
      <path id="Path_10" data-name="Path 10" d="M523.192,403.64l-6.68.136-1.092,1.5v5.18l1.363.954h6.408l1.364-1.5V405Z" transform="translate(-504.722 -403.422)" fill="#333"/>
      <path id="Path_11" data-name="Path 11" d="M550.82,468.907s-6.135.954-6.68,0l.136-.681,6.544-.136Z" transform="translate(-532.487 -467.872)" fill="#fff" opacity="0.2"/>
      <path id="Path_12" data-name="Path 12" d="M549.842,543.2l1.09,1.092v5.19l-1.09,1.08s-3.955,1.364-6.544.271l-1.228-1.226v-5.18l1.092-1.228Z" transform="translate(-530.831 -527.988)" fill="#333"/>
      <path id="Path_13" data-name="Path 13" d="M553.966,544.428s-4.771,1.09-6.406,0V543.2h6.676Z" transform="translate(-535.225 -527.988)" fill="#fff" opacity="0.2"/>
      <path id="Path_14" data-name="Path 14" d="M558.708,502.632v7.374a1.108,1.108,0,0,1-1.158,1.046h0a1.108,1.108,0,0,1-1.16-1.046v-7.374a1.12,1.12,0,0,1,1.3-1.04h0A1.09,1.09,0,0,1,558.708,502.632Z" transform="translate(-542.292 -494.68)" fill="#333"/>
      <path id="Path_15" data-name="Path 15" d="M596.918,423.39l-5.5.114-.9,1.234V429l1.122.787h5.276l1.122-1.236v-4.041Z" transform="translate(-564.829 -419.23)" fill="#333"/>
      <path id="Path_16" data-name="Path 16" d="M623.9,488.515s-5.049.785-5.5,0l.112-.561,5.39-.114Z" transform="translate(-591.923 -483.68)" fill="#fff" opacity="0.2"/>
      <path id="Path_17" data-name="Path 17" d="M623.09,549.68l.9.9v4.264l-.9.9s-3.254,1.122-5.39.224l-1.01-1.01V550.69l.9-1.01Z" transform="translate(-590.554 -533.174)" fill="#333"/>
      <path id="Path_18" data-name="Path 18" d="M626.484,550.69s-3.929.9-5.274,0v-1.01h5.5Z" transform="translate(-594.172 -533.174)" fill="#fff" opacity="0.2"/>
      <path id="Path_19" data-name="Path 19" d="M630.426,516.262v6.071a.91.91,0,0,1-.954.86h0a.908.908,0,0,1-.952-.86v-6.071a.922.922,0,0,1,1.064-.856h0A.9.9,0,0,1,630.426,516.262Z" transform="translate(-600.023 -505.733)" fill="#333"/>
      <path id="Path_20" data-name="Path 20" d="M641.036,424.26l-5.5.112-.9,1.234v4.266l1.122.785h5.274l1.122-1.234v-4.041Z" transform="translate(-600.142 -419.926)" fill="#333"/>
      <path id="Path_21" data-name="Path 21" d="M668.01,489.383s-5.051.787-5.5,0l.112-.561,5.39-.112Z" transform="translate(-627.227 -484.376)" fill="#fff" opacity="0.2"/>
      <path id="Path_22" data-name="Path 22" d="M667.218,550.55l.9.9v4.264l-.9.9s-3.256,1.122-5.39.226l-1.008-1v-4.27l.9-1.01Z" transform="translate(-625.874 -533.871)" fill="#333"/>
      <path id="Path_23" data-name="Path 23" d="M670.594,551.56s-3.927.9-5.274,0v-1.01h5.5Z" transform="translate(-629.476 -533.871)" fill="#fff" opacity="0.2"/>
      <path id="Path_24" data-name="Path 24" d="M674.538,517.151v6.069a.91.91,0,0,1-.954.86h0a.91.91,0,0,1-.954-.86v-6.069a.924.924,0,0,1,1.066-.854h0A.9.9,0,0,1,674.538,517.151Z" transform="translate(-635.327 -506.45)" fill="#333"/>
    </g>
    <path id="Path_25" data-name="Path 25" d="M276.676,250.42A3.369,3.369,0,0,0,274.6,248.9a7.587,7.587,0,0,0-2.611-.164,22.954,22.954,0,0,0-4.178.689,4.354,4.354,0,0,0-2.3,1.2c-.016.02-.034.044-.052.064-.876.23-1.747.583-2.6.87a24.349,24.349,0,0,1-2.6.7,15.372,15.372,0,0,0,3.212-2.266,9.079,9.079,0,0,0,1.2-1.429,4.754,4.754,0,0,0,2,.134,7.209,7.209,0,0,0,3.46-2.14l3.268-3.006a6.628,6.628,0,0,0,1.4-1.6,6.25,6.25,0,0,0,.523-2.907c.016-1.369,0-2.739-.04-4.106l1.034.8a9.157,9.157,0,0,1,.906-4.9,5.469,5.469,0,0,0,.84-2.258,3.418,3.418,0,0,0-2.166-2.795,12.844,12.844,0,0,1-3.25-1.763c-1.346-1.268-1.6-3.29-2.262-5.027a19.978,19.978,0,0,0-1.4-2.749l-1.294-2.256a31.987,31.987,0,0,0-2.172-3.432,31.475,31.475,0,0,0-4.723-4.685l-8.752-7.54a82.239,82.239,0,0,0-6.566-5.276c-4.669-3.256-9.938-5.492-15.172-7.706a9.608,9.608,0,0,0-4.114-1.058,4.705,4.705,0,0,0-2.883,1.234,17.213,17.213,0,0,1-2.2-.834l-.056-.026c.016-.118.034-.234.046-.351.018-.156.028-.311.04-.469a3.662,3.662,0,0,0,1.13-.369,1.355,1.355,0,0,0,.465-.361,1.655,1.655,0,0,0,.238-.884,39.641,39.641,0,0,0,.148-6.268,13.261,13.261,0,0,0-1.8-5.943,3.086,3.086,0,0,0-1.361-1.318c-.8-.319-1.723-.022-2.575-.166-1.475-.25-2.4-1.693-3.464-2.757a8.4,8.4,0,0,0-10.439-.918,30.514,30.514,0,0,0-3.182,2.943,7.061,7.061,0,0,1-3.713,2.08,1.809,1.809,0,0,0-.753.2,1.55,1.55,0,0,0-.535.864,15.288,15.288,0,0,0-.9,3.472c-.014-.072-.026-.144-.038-.216a6.769,6.769,0,0,0-.034,1.32,3.851,3.851,0,0,0,.475,1.6,2.166,2.166,0,0,0,1.092,1.042,2.975,2.975,0,0,0,1.052.17h.158c-.058.154-.114.307-.166.463a12.776,12.776,0,0,0-.669,4.094,12.552,12.552,0,0,0,12.459,12.649,12.42,12.42,0,0,0,2.465-.26c.269.086.539.174.8.268a14.97,14.97,0,0,1,1.561.615c.216.1,1.088.611,2.142,1.268h0l-.072.15a7.933,7.933,0,0,0-2.294,7.672c.763,2.969,3.264,5.514,3.012,8.57a5.23,5.23,0,0,0-.054,1.308,3.169,3.169,0,0,0,.912,1.529c.351.387.717.763,1.088,1.13-.03,1.95-.2,3.9-.383,5.843-.016.17-.02.341-.022.515a3.594,3.594,0,0,0,.862,2.29,3.714,3.714,0,0,1,.7,2.7,18.648,18.648,0,0,1-1.268,3.853c-2.008,5.755.459,12.245-.93,18.188a25.817,25.817,0,0,0-1,4.392,8.249,8.249,0,0,1-.26,2.795,5.242,5.242,0,0,1-1.583,1.829q-1.308,1.12-2.547,2.316A35.257,35.257,0,0,0,208,260.693a6.921,6.921,0,0,0-.659-.228,28.459,28.459,0,0,0-5.378-3.47c-1.533-.888-2.995-1.887-4.464-2.885a24.968,24.968,0,0,1-4.007-3.156c-.6-.623-1.132-1.31-1.777-1.879a15.108,15.108,0,0,0-1.8-1.286,72.2,72.2,0,0,1-8.081-6.079c-1.942-1.685-3.531-3.855-5.608-5.366a6.434,6.434,0,0,0-4.308-1.6,4.11,4.11,0,0,0-1.419.437,3.712,3.712,0,0,0-1.3-.291,6.646,6.646,0,0,0-3.514,1.308q-9.582,5.823-19.464,11.127c-1.33.715-2.667,1.423-3.937,2.242a26.736,26.736,0,0,0-6.5,5.923c-.335.425-.759.908-1.292.845a1.154,1.154,0,0,1-.413-.148,5.2,5.2,0,0,1-1.8-2.122,6.75,6.75,0,0,0-1.218-1.679h0a3.545,3.545,0,0,0-.427-.8c.709-1.749,1.32-3.539,1.887-5.342.3-.946.581-1.9.958-2.817.93-2.272,2.414-4.33,2.939-6.734.126-.581.2-1.178.3-1.765a12.5,12.5,0,1,0-9.035-1.719v.07a8.827,8.827,0,0,1-.118,1.2A15.161,15.161,0,0,1,126.2,238.3c-.379.816-.759,1.637-1.152,2.451a2.273,2.273,0,0,1-.545-.184,1.65,1.65,0,0,1-.613-.962,34.433,34.433,0,0,0-2.07-4.843,8.386,8.386,0,0,0-1.2-1.839,10.1,10.1,0,0,0-3.112-2.022c-.2-.1-.385-.2-.577-.291a4.929,4.929,0,0,0-.519-.337,13.12,13.12,0,0,1-2.733-1.637c-.581-.551-.98-1.268-1.523-1.853a9.723,9.723,0,0,0-3.364-2.056,4.464,4.464,0,0,0-1.982-.519,2.376,2.376,0,0,0-.289.032,4.583,4.583,0,0,0-.491.112,2.673,2.673,0,0,1-.443-.3,4.378,4.378,0,0,1-1.27-2.463,11.515,11.515,0,0,1-.573-4.665,7.067,7.067,0,0,1,.176-.8c.062-.1.122-.2.176-.309a10.415,10.415,0,0,0,5.452-16.062c-.1-.14-.2-.276-.313-.411l.12-.066a2.853,2.853,0,0,0,.844-3.49,6.3,6.3,0,0,0-2.7-2.717c-.16-.1-.321-.19-.485-.281l-.14-.076c-.124-.068-.246-.134-.369-.2l-.146-.074c-.146-.074-.291-.144-.437-.212l-.066-.032c-.182-.082-.363-.162-.547-.238h0c-.178-.074-.355-.142-.535-.2l-.074-.028c-.17-.062-.341-.12-.513-.176l-.038-.012a13.421,13.421,0,0,0-3.885-.655,22.462,22.462,0,0,0-7.436,1.457,12.812,12.812,0,0,0-4.925,3.693,4.748,4.748,0,0,0-.822.136,8.266,8.266,0,0,0-2.941,1.559,9.382,9.382,0,0,0-1.956,1.94,8.372,8.372,0,0,0-1.32,3.148c-.757,3.539.174,7.187.858,10.744s1.08,7.434-.6,10.626c-.633,1.2-1.531,2.238-2.2,3.414a5.181,5.181,0,0,0-.743,3.9c.465,1.583,2,2.579,2.795,4.017a4.923,4.923,0,0,1-.545,5.39c-.054.064-.108.128-.166.2a2,2,0,0,1-.216.216,4.519,4.519,0,0,0,3.793-.745,6.733,6.733,0,0,0,2.238-2.154c1.427-2.344.787-5.374,1.29-8.083.661-3.547,3.328-6.712,2.961-10.3-.248-2.41-1.821-4.424-3.056-6.5a25.7,25.7,0,0,1-2.056-4.376l-.068-.2h0a6.43,6.43,0,0,1-.453-3.194,4.467,4.467,0,0,1,.311-1.012v.116A7.835,7.835,0,0,0,85.7,207.9c1.248,2.6,4.25,3.793,6.157,5.9.08.088.156.178.232.27.022.024.042.05.062.076l.162.2.068.094c.05.07.1.14.146.212l.062.09c.064.1.128.2.188.309a4.754,4.754,0,0,0,1.182-1.8,1.882,1.882,0,0,0,.042-.184c.016.016.03.034.046.052.038.214.068.427.1.643h0a4.338,4.338,0,0,0,.1.917,40.315,40.315,0,0,1-.1,5.807c-.068,1.028.2,2.555-.455,3.322l-.02.022a1.056,1.056,0,0,1-.126.124h0c-.112.116-.226.23-.331.349a13.9,13.9,0,0,0-3.142,9.355,32.2,32.2,0,0,0,2.663,11.105,31.186,31.186,0,0,0,1.709,3.793,6.624,6.624,0,0,0,1.32,1.775,7.952,7.952,0,0,0,1.916,1.144c.168.08.337.158.505.24l.429.2,3.268,1.553c.6.88,1.178,1.785,1.763,2.691.084.128.166.259.252.387.639,1,1.282,2,1.936,2.966l5.508,8.157a6.873,6.873,0,0,0,1.377,1.641,2.811,2.811,0,0,0,.515.321,2.684,2.684,0,0,0,.285.118.91.91,0,0,0-.146.617,1.044,1.044,0,0,0,.4.521c1.246,1.03,2.629,2.116,3.02,3.7.277,1.128,0,2.336.25,3.47.457,2.044,2.479,3.284,4.392,4.07a24.605,24.605,0,0,0,13.6,1.619,19.869,19.869,0,0,0,11.828-6.788c.906-1.114,1.679-2.33,2.539-3.48a29.133,29.133,0,0,1,1.938-2.328,16,16,0,0,0,2.118-1.17,40.9,40.9,0,0,0,3.993-3.322c.98-.854,2.006-1.661,2.907-2.6a30.415,30.415,0,0,0,2.262-2.795q2.4-3.174,4.949-6.223a9.86,9.86,0,0,1,3.146-2.795l.058-.024a7.2,7.2,0,0,0,1.357,2.426c2.056,3.194,4.208,6.482,7.386,8.518a23.607,23.607,0,0,0,5.674,2.42c4.991,1.577,10.061,2.815,15.136,4.055.168-.319.331-.615.515-.9a2.733,2.733,0,0,1,.22.263c.022.032.04.066.062.1a.732.732,0,0,0-.108.03,1.42,1.42,0,0,0-.717.755,8.379,8.379,0,0,0-.625,3.593c-.018,1.2,0,2.4,0,3.593a3.1,3.1,0,0,0,.2,1.314,2.718,2.718,0,0,0,2.252,1.2,18.821,18.821,0,0,0,4.592-.18,3.537,3.537,0,0,0,.425,1.016A7.254,7.254,0,0,0,211,283.281a34.316,34.316,0,0,0,4.757,1.074c2.833.563,5.731,1.463,8.548.828,1.124-.254,2.2-.745,3.32-.96,2.573-.487,5.24.5,7.832.1a12.308,12.308,0,0,0,3.569-1.272A4.9,4.9,0,0,0,240.555,282a1.913,1.913,0,0,0,.493-1.735,7,7,0,0,0-.471-.97,5.159,5.159,0,0,1-.337-1.637,44.944,44.944,0,0,0-1.074-6.292c-.014-.058-.03-.118-.046-.178a27.214,27.214,0,0,0,5.446-3.21l3.727-2.607a22.138,22.138,0,0,1,3.771-2.284,16.328,16.328,0,0,1,6.6-1.164c.92,0,1.843.046,2.759.13a1.2,1.2,0,0,0-.258.443,1.644,1.644,0,0,0,.541,1.615,7.115,7.115,0,0,0,1.507.942,9.119,9.119,0,0,1,3.394,3.336,3.644,3.644,0,0,1,.559,2.9c-.4,1.21-1.823,2.044-1.741,3.318a2.042,2.042,0,0,0,1.342,1.649,5.42,5.42,0,0,0,2.2.252,8.346,8.346,0,0,0,3.555-.685,9.209,9.209,0,0,0,1.962-1.493,5.7,5.7,0,0,0,1.437-1.725,5.253,5.253,0,0,0,.355-2.09c.06-3.346-.517-6.738.148-10.016.2-1,.519-1.974.689-2.98a21,21,0,0,0,.064-4.815A5.262,5.262,0,0,0,276.676,250.42Z" transform="translate(-67.25 -143.692)" fill="url(#linear-gradient)"/>
    <path id="Path_26" data-name="Path 26" d="M741.488,323.431a3.316,3.316,0,0,0-1.158,2.493c-.425,4.007,1.228,7.973,1.118,12-.088,3.2-1.282,6.26-2.459,9.241a55,55,0,0,0-3.46,16.058c-.405,5.452-1,11.129-3.925,15.741-.665,1.044-1.439,2.014-2.09,3.064-.683,1.1-1.224,2.276-1.827,3.418a36.776,36.776,0,0,1-6.788,9.117,9.366,9.366,0,0,1-2.663,1.982,5.362,5.362,0,0,1-4.164.044,3.981,3.981,0,0,1-2.571-3.316,5.9,5.9,0,0,1,1.529-3.571,58.623,58.623,0,0,1,9.183-9.734,5.286,5.286,0,0,0,1.6-1.811,8.1,8.1,0,0,0,.26-2.769,24.348,24.348,0,0,1,1-4.348c1.4-5.887-1.086-12.315.934-18.019a18.15,18.15,0,0,0,1.274-3.815,3.626,3.626,0,0,0-.7-2.679,3.522,3.522,0,0,1-.864-2.268,4.308,4.308,0,0,1,.02-.509,55.057,55.057,0,0,0,.353-7.86,18.428,18.428,0,0,0-1.863-7.586,21.549,21.549,0,0,1-1.825-3.641,9.22,9.22,0,0,1,.88-6.388,11.145,11.145,0,0,1,3.04-4.118,8.145,8.145,0,0,1,9.005-.573,13.3,13.3,0,0,1,4.534,5.318C740.659,320.419,741.5,321.7,741.488,323.431Z" transform="translate(-574.239 -262.976)" opacity="0.06"/>
    <path id="Path_27" data-name="Path 27" d="M754.023,258.343q-.575,1.551-1.144,3.1c-.252.679-.5,1.363-.761,2.042a31.692,31.692,0,0,1-4.633,8.8c.313-.387-2.635-2.336-4.809-3.665-1.06-.653-1.938-1.156-2.154-1.256a15.739,15.739,0,0,0-1.571-.611c-.828-.279-1.667-.521-2.5-.822-1.916-.693-.577-1.733.244-2.851,2.685-3.661,3.194-8.664,6.242-12.028a11.241,11.241,0,0,0,5.047,4.881c.042.022.086.042.13.06,1.811.846,3.811,1.212,5.684,1.92.1.038.22.092.254.2A.4.4,0,0,1,754.023,258.343Z" transform="translate(-593.428 -213.798)" fill="#a1616a"/>
    <path id="Path_28" data-name="Path 28" d="M795.781,613.239a9.006,9.006,0,0,0-.928,8.618,2.922,2.922,0,0,0,.673,1.04,3.15,3.15,0,0,0,1.284.6,27.629,27.629,0,0,0,12.257.2,21.571,21.571,0,0,0,4.037-1.028,26.966,26.966,0,0,0,5.578-3.222l3.749-2.583a22.73,22.73,0,0,1,3.793-2.264,16.673,16.673,0,0,1,6.638-1.152,30.977,30.977,0,0,1,5.789.553c1.272.246,2.795.5,3.689-.429a3.493,3.493,0,0,0,.763-2.018,30.073,30.073,0,0,0-.022-8.5,1.1,1.1,0,0,0-.245-.649,1,1,0,0,0-.495-.226c-1.767-.4-3.54.429-5.256,1-3.567,1.186-7.4,1.328-11.028,2.3-3.809,1.024-7.386,2.963-11.323,3.356-1.877.188-3.761.024-5.642.066-1.745.038-3.372.641-5.081.713C800.716,609.761,797.851,610.336,795.781,613.239Z" transform="translate(-640.398 -494.747)" fill="#a1616a"/>
    <path id="Path_29" data-name="Path 29" d="M795.781,613.239a9.006,9.006,0,0,0-.928,8.618,2.922,2.922,0,0,0,.673,1.04,3.15,3.15,0,0,0,1.284.6,27.629,27.629,0,0,0,12.257.2,21.571,21.571,0,0,0,4.037-1.028,26.966,26.966,0,0,0,5.578-3.222l3.749-2.583a22.73,22.73,0,0,1,3.793-2.264,16.673,16.673,0,0,1,6.638-1.152,30.977,30.977,0,0,1,5.789.553c1.272.246,2.795.5,3.689-.429a3.493,3.493,0,0,0,.763-2.018,30.073,30.073,0,0,0-.022-8.5,1.1,1.1,0,0,0-.245-.649,1,1,0,0,0-.495-.226c-1.767-.4-3.54.429-5.256,1-3.567,1.186-7.4,1.328-11.028,2.3-3.809,1.024-7.386,2.963-11.323,3.356-1.877.188-3.761.024-5.642.066-1.745.038-3.372.641-5.081.713C800.716,609.761,797.851,610.336,795.781,613.239Z" transform="translate(-640.398 -494.747)" opacity="0.06"/>
    <path id="Path_30" data-name="Path 30" d="M817.963,525.446a2.7,2.7,0,0,0-.046,1.34,2.5,2.5,0,0,0,.8,1.074c3.394,3.038,8.243,3.667,12.777,4.16a9.673,9.673,0,0,0,6.855-1.126,30.347,30.347,0,0,0,6.286-3.621c1.847-1.5,3.328-3.414,5.24-4.825,2.174-1.6,4.847-2.511,6.787-4.392a9.126,9.126,0,0,0,2.661-5.043,14.4,14.4,0,0,0,0-3.973,11.82,11.82,0,0,0-1.134-4.41,10.662,10.662,0,0,0-3.725-3.7,19.338,19.338,0,0,0-10.58-3.274c-5.19.046-9.982,3.066-13.707,6.458a40.341,40.341,0,0,0-9.383,12.763A38.97,38.97,0,0,0,817.963,525.446Z" transform="translate(-659.359 -411.175)" fill="#464353"/>
    <path id="Path_31" data-name="Path 31" d="M817.963,525.446a2.7,2.7,0,0,0-.046,1.34,2.5,2.5,0,0,0,.8,1.074c3.394,3.038,8.243,3.667,12.777,4.16a9.673,9.673,0,0,0,6.855-1.126,30.347,30.347,0,0,0,6.286-3.621c1.847-1.5,3.328-3.414,5.24-4.825,2.174-1.6,4.847-2.511,6.787-4.392a9.126,9.126,0,0,0,2.661-5.043,14.4,14.4,0,0,0,0-3.973,11.82,11.82,0,0,0-1.134-4.41,10.662,10.662,0,0,0-3.725-3.7,19.338,19.338,0,0,0-10.58-3.274c-5.19.046-9.982,3.066-13.707,6.458a40.341,40.341,0,0,0-9.383,12.763A38.97,38.97,0,0,0,817.963,525.446Z" transform="translate(-659.359 -411.175)" opacity="0.06"/>
    <path id="Path_32" data-name="Path 32" d="M741.488,323.431a3.316,3.316,0,0,0-1.158,2.493c-.425,4.007,1.228,7.973,1.118,12-.088,3.2-1.282,6.26-2.459,9.241a55,55,0,0,0-3.46,16.058c-.405,5.452-1,11.129-3.925,15.741-.665,1.044-1.439,2.014-2.09,3.064-.683,1.1-1.224,2.276-1.827,3.418a36.776,36.776,0,0,1-6.788,9.117,9.366,9.366,0,0,1-2.663,1.982,5.362,5.362,0,0,1-4.164.044,3.981,3.981,0,0,1-2.571-3.316,5.9,5.9,0,0,1,1.529-3.571,58.623,58.623,0,0,1,9.183-9.734,5.286,5.286,0,0,0,1.6-1.811,8.1,8.1,0,0,0,.26-2.769,24.348,24.348,0,0,1,1-4.348c1.4-5.887-1.086-12.315.934-18.019a18.15,18.15,0,0,0,1.274-3.815,3.626,3.626,0,0,0-.7-2.679,3.522,3.522,0,0,1-.864-2.268,4.308,4.308,0,0,1,.02-.509,55.057,55.057,0,0,0,.353-7.86,18.428,18.428,0,0,0-1.863-7.586,21.549,21.549,0,0,1-1.825-3.641,9.22,9.22,0,0,1,.88-6.388,11.145,11.145,0,0,1,3.04-4.118,8.145,8.145,0,0,1,9.005-.573,13.3,13.3,0,0,1,4.534,5.318C740.659,320.419,741.5,321.7,741.488,323.431Z" transform="translate(-574.239 -262.976)" fill="#a1616a"/>
    <ellipse id="Ellipse_3" data-name="Ellipse 3" cx="7.556" cy="11.856" rx="7.556" ry="11.856" transform="translate(148.663 50.154)" fill="#a1616a"/>
    <path id="Path_33" data-name="Path 33" d="M703.188,658.184a2.635,2.635,0,0,1,.4,2.2,3.838,3.838,0,0,0,2.453.715,7.59,7.59,0,0,0,2.525-.581,8.343,8.343,0,0,0,1.964-1.03,8.659,8.659,0,0,0,2.4-3.014c.337-.631.625-1.447.2-2.014a1.931,1.931,0,0,0-.6-.463,35.559,35.559,0,0,0-4.791-2.278,3.521,3.521,0,0,0-1.445-.323,3.1,3.1,0,0,0-1.657.745,8.984,8.984,0,0,0-2.579,3.194c-.188.4-.755,1.348-.473,1.759.128.19.6.256.8.375a2.582,2.582,0,0,1,.809.721Z" transform="translate(-566.24 -534.218)" fill="#fbbebe"/>
    <path id="Path_34" data-name="Path 34" d="M703.188,658.184a2.635,2.635,0,0,1,.4,2.2,3.838,3.838,0,0,0,2.453.715,7.59,7.59,0,0,0,2.525-.581,8.343,8.343,0,0,0,1.964-1.03,8.659,8.659,0,0,0,2.4-3.014c.337-.631.625-1.447.2-2.014a1.931,1.931,0,0,0-.6-.463,35.559,35.559,0,0,0-4.791-2.278,3.521,3.521,0,0,0-1.445-.323,3.1,3.1,0,0,0-1.657.745,8.984,8.984,0,0,0-2.579,3.194c-.188.4-.755,1.348-.473,1.759.128.19.6.256.8.375a2.582,2.582,0,0,1,.809.721Z" transform="translate(-566.24 -534.218)" opacity="0.03"/>
    <path id="Path_35" data-name="Path 35" d="M709.076,662.236c3.378.627,6.484,2.26,9.8,3.14a32.6,32.6,0,0,1,4.011,1.122,5.46,5.46,0,0,1,3.046,2.691,7.708,7.708,0,0,1,.461,1.9,2.727,2.727,0,0,1-2.929,3.8c-3.51.417-7.019.836-10.541,1.132a18.417,18.417,0,0,0-2.126.254c-.579.116-1.144.291-1.719.427-.745.174-1.5.284-2.256.4a23.283,23.283,0,0,1-5.821.343,2.713,2.713,0,0,1-2.264-1.182,3.017,3.017,0,0,1-.2-1.3c-.01-1.186-.02-2.37,0-3.553a8.061,8.061,0,0,1,.629-3.561,1.415,1.415,0,0,1,.721-.749,1.654,1.654,0,0,1,.619-.056,7.311,7.311,0,0,1,3.04.543c.737.365,1.336.974,2.086,1.306,1.421.631,3.136.178,4.576.771a5.729,5.729,0,0,0,.01-3.14,24.438,24.438,0,0,1-.7-3.182,2.027,2.027,0,0,0-.136-.695C709.276,662.417,709.312,662.2,709.076,662.236Z" transform="translate(-563.861 -542.896)" fill="#464353"/>
    <path id="Path_36" data-name="Path 36" d="M709.076,662.236c3.378.627,6.484,2.26,9.8,3.14a32.6,32.6,0,0,1,4.011,1.122,5.46,5.46,0,0,1,3.046,2.691,7.708,7.708,0,0,1,.461,1.9,2.727,2.727,0,0,1-2.929,3.8c-3.51.417-7.019.836-10.541,1.132a18.417,18.417,0,0,0-2.126.254c-.579.116-1.144.291-1.719.427-.745.174-1.5.284-2.256.4a23.283,23.283,0,0,1-5.821.343,2.713,2.713,0,0,1-2.264-1.182,3.017,3.017,0,0,1-.2-1.3c-.01-1.186-.02-2.37,0-3.553a8.061,8.061,0,0,1,.629-3.561,1.415,1.415,0,0,1,.721-.749,1.654,1.654,0,0,1,.619-.056,7.311,7.311,0,0,1,3.04.543c.737.365,1.336.974,2.086,1.306,1.421.631,3.136.178,4.576.771a5.729,5.729,0,0,0,.01-3.14,24.438,24.438,0,0,1-.7-3.182,2.027,2.027,0,0,0-.136-.695C709.276,662.417,709.312,662.2,709.076,662.236Z" transform="translate(-563.861 -542.896)" opacity="0.06"/>
    <path id="Path_37" data-name="Path 37" d="M174.583,442.233c-.681-.216-1.338.387-1.719,1a8.941,8.941,0,0,0-.188,8.484,6.44,6.44,0,0,0,1.23,1.831,11.842,11.842,0,0,0,2.4,1.6,18.025,18.025,0,0,1,5.741,5.39c.976,1.439,1.745,3.022,2.853,4.362,2.727,3.3,7.209,4.791,9.854,8.145a10.378,10.378,0,0,0,2.012,2.306,3.422,3.422,0,0,0,5.356-2.651,38.46,38.46,0,0,0,2.669-4.825,57.432,57.432,0,0,0,2.994-7.76c.3-.938.585-1.883.964-2.795.936-2.252,2.428-4.29,2.955-6.67a28.786,28.786,0,0,1,.571-2.873,5.468,5.468,0,0,1,1.373-2.2c2.076-2.018,3.194-4.959,4.845-7.335a15.839,15.839,0,0,0,1.811-3,4.753,4.753,0,0,0,.2-3.428,2.859,2.859,0,0,0-2.663-1.922,4.047,4.047,0,0,0-1.5.459,16.661,16.661,0,0,0-4.38,3.018,21.208,21.208,0,0,0-1.6,1.717c-2.44,2.915-4.348,6.452-4.516,10.249-.056,1.3.048,2.745-.779,3.753-2.28,2.785-3.012,6.614-4.957,9.644a8.328,8.328,0,0,1-3.472,3.482,1.481,1.481,0,0,1-.731.144c-.615-.07-.968-.717-1.228-1.28a49.525,49.525,0,0,0-3.512-6.338,6.036,6.036,0,0,0-1.936-2.086c-.571-.317-1.234-.459-1.771-.83a5.244,5.244,0,0,1-1.529-2.222,34.523,34.523,0,0,0-4.753-7.41c-.866-1.032-2.008-2.1-3.346-1.944C176.564,440.392,175.785,441.732,174.583,442.233Z" transform="translate(-142.202 -356.932)" fill="#fbbebe"/>
    <path id="Path_38" data-name="Path 38" d="M174.583,442.233c-.681-.216-1.338.387-1.719,1a8.941,8.941,0,0,0-.188,8.484,6.44,6.44,0,0,0,1.23,1.831,11.842,11.842,0,0,0,2.4,1.6,18.025,18.025,0,0,1,5.741,5.39c.976,1.439,1.745,3.022,2.853,4.362,2.727,3.3,7.209,4.791,9.854,8.145a10.378,10.378,0,0,0,2.012,2.306,3.422,3.422,0,0,0,5.356-2.651,38.46,38.46,0,0,0,2.669-4.825,57.432,57.432,0,0,0,2.994-7.76c.3-.938.585-1.883.964-2.795.936-2.252,2.428-4.29,2.955-6.67a28.786,28.786,0,0,1,.571-2.873,5.468,5.468,0,0,1,1.373-2.2c2.076-2.018,3.194-4.959,4.845-7.335a15.839,15.839,0,0,0,1.811-3,4.753,4.753,0,0,0,.2-3.428,2.859,2.859,0,0,0-2.663-1.922,4.047,4.047,0,0,0-1.5.459,16.661,16.661,0,0,0-4.38,3.018,21.208,21.208,0,0,0-1.6,1.717c-2.44,2.915-4.348,6.452-4.516,10.249-.056,1.3.048,2.745-.779,3.753-2.28,2.785-3.012,6.614-4.957,9.644a8.328,8.328,0,0,1-3.472,3.482,1.481,1.481,0,0,1-.731.144c-.615-.07-.968-.717-1.228-1.28a49.525,49.525,0,0,0-3.512-6.338,6.036,6.036,0,0,0-1.936-2.086c-.571-.317-1.234-.459-1.771-.83a5.244,5.244,0,0,1-1.529-2.222,34.523,34.523,0,0,0-4.753-7.41c-.866-1.032-2.008-2.1-3.346-1.944C176.564,440.392,175.785,441.732,174.583,442.233Z" transform="translate(-142.202 -356.932)" opacity="0.03"/>
    <ellipse id="Ellipse_4" data-name="Ellipse 4" cx="5.262" cy="4.749" rx="5.262" ry="4.749" transform="translate(26.979 66.264)" fill="#fbbebe"/>
    <circle id="Ellipse_5" data-name="Ellipse 5" cx="1.895" cy="1.895" r="1.895" transform="translate(35.282 68.143)" fill="#fbbebe"/>
    <ellipse id="Ellipse_6" data-name="Ellipse 6" cx="7.249" cy="1.938" rx="7.249" ry="1.938" transform="translate(25.683 67.136)" fill="#fbbebe"/>
    <path id="Path_39" data-name="Path 39" d="M146.419,345.34a13.126,13.126,0,0,1,.415,1.707,10.194,10.194,0,0,1-1.569-2.062,1.535,1.535,0,0,1-.278-.439,11.727,11.727,0,0,1-1.088-4.677,10.253,10.253,0,1,1,12.948,9.892,12.811,12.811,0,0,0,.8-3.044,2.2,2.2,0,0,0-.148-1.028,2.344,2.344,0,0,0-.753-.866,6.5,6.5,0,0,0-4.049-1.23,11.111,11.111,0,0,0-4.162,1c-.413.178-.908.417-1.4.581A3.641,3.641,0,0,1,146.419,345.34Z" transform="translate(-119.952 -276.678)" fill="#fbbebe"/>
    <path id="Path_40" data-name="Path 40" d="M182.146,437.668a3.5,3.5,0,0,1-3.294,1.28,11.242,11.242,0,0,1-6.169-2.875c-1.777-1.477-3.33-3.194-5.146-4.615a18.266,18.266,0,0,0-11.487-3.775c.84-.7.531-2.35.6-3.436a33.582,33.582,0,0,0,0-6.614c-.03-.234-.064-.463-.1-.693.068.072.14.142.214.214a10.265,10.265,0,0,0,9.8,2.5,7.992,7.992,0,0,0-.258,1.062,11.14,11.14,0,0,0,.577,4.62,4.315,4.315,0,0,0,1.278,2.44,5.624,5.624,0,0,0,1.665.7,9.184,9.184,0,0,1,3.1,1.8,25.105,25.105,0,0,0,1.875,1.679A13.05,13.05,0,0,0,176.824,433a25.354,25.354,0,0,1,4.871,2.953,1.6,1.6,0,0,1,.633.751A1.234,1.234,0,0,1,182.146,437.668Z" transform="translate(-129.676 -346.571)" fill="#fbbebe"/>
    <path id="Path_41" data-name="Path 41" d="M179.95,495.643c-.138.91-.972,1.621-1.561,2.328-1.6,1.932-3.224,3.871-5.015,5.64a78.5,78.5,0,0,1-6.123,5.26l-2.727,2.182a3.435,3.435,0,0,1-1.16.7,2.118,2.118,0,0,1-1.493-.178,2.92,2.92,0,0,1-.517-.317,7,7,0,0,1-1.385-1.627q-2.767-4.039-5.54-8.079c-.659-.962-1.306-1.95-1.948-2.939-.086-.128-.168-.258-.254-.385-.587-.9-1.172-1.8-1.773-2.665l-3.286-1.539-.431-.2-.509-.238a8.063,8.063,0,0,1-1.926-1.132,6.522,6.522,0,0,1-1.328-1.759,30.778,30.778,0,0,1-1.721-3.767,31.427,31.427,0,0,1-2.679-11,13.593,13.593,0,0,1,3.16-9.265,9.945,9.945,0,0,1,.976-.946,1.746,1.746,0,0,1,1.417-.489c.549.078,1.07.158,1.6.248q2.18.375,4.326.918a8.959,8.959,0,0,0,3.929.443c.21-.042.417-.1.625-.156.17-.044.337-.086.511-.114a2.371,2.371,0,0,1,.291-.032,4.584,4.584,0,0,1,2,.515,9.921,9.921,0,0,1,3.394,2.036c.547.579.948,1.29,1.531,1.835a13.23,13.23,0,0,0,2.751,1.623,4.94,4.94,0,0,1,.521.333,5.919,5.919,0,0,1,1,.948h0c1.21,1.427,1.928,3.354,3.264,4.773a19.482,19.482,0,0,1,2.767,3.747c.126.226.248.453.367.685q.3.578.557,1.172c.044.1.088.2.128.305a18.306,18.306,0,0,1,.657,1.831,11.848,11.848,0,0,0,1.761,4.344,21.8,21.8,0,0,0,2.5,2.122,4.419,4.419,0,0,1,1.214,1.651A2.359,2.359,0,0,1,179.95,495.643Z" transform="translate(-115.688 -385.204)" fill="#fbbebe"/>
    <path id="Path_42" data-name="Path 42" d="M187.1,485.478q-.343.433-.7.854c-.04.052-.084.1-.128.152a38.127,38.127,0,0,1-7.159,6.49c-1.641,1.146-3.372,2.162-5.1,3.176l-3.194,1.871a19.779,19.779,0,0,1-4.17,2.026c-.475.142-.972.256-1.457.389-.086-.128-.168-.258-.254-.385-.587-.9-1.172-1.8-1.773-2.665l-3.286-1.539a19.244,19.244,0,0,0,4.763-4.268,51.755,51.755,0,0,0,5.045-8.057,6.058,6.058,0,0,0,.621-1.437,4.942,4.942,0,0,0-.214-2.537,13.375,13.375,0,0,0-5.35-7.213,25.282,25.282,0,0,0-5.873-2.629,9.886,9.886,0,0,0-4.418-.765,9.7,9.7,0,0,1,.976-.944,1.741,1.741,0,0,1,1.417-.491c.549.078,1.07.158,1.6.25,1.068.327,2.118.719,3.162,1.122a14.818,14.818,0,0,1,2,.9,17.88,17.88,0,0,1,1.839,1.288,45.945,45.945,0,0,0,5.454,3.575c2.2,1.212,4.5,2.2,6.805,3.194a1.811,1.811,0,0,0,.789.2.619.619,0,0,0,.6-.467.753.753,0,0,0-.1-.417,4.162,4.162,0,0,0-2.126-1.625,51.474,51.474,0,0,1-9.363-6.378.94.94,0,0,1-.188-.2l.511-.114a76.15,76.15,0,0,0,10.471,6.312q.289.148.581.287c.14.07.277.138.419.2h0a8.937,8.937,0,0,1,2.709,1.8,8.272,8.272,0,0,1,1.2,1.819,34.18,34.18,0,0,1,2.084,4.791,1.082,1.082,0,0,0,.038.1,1.844,1.844,0,0,0,.367.685.776.776,0,0,0,.21.166C186.275,485.219,186.79,485.195,187.1,485.478Z" transform="translate(-128.395 -387.029)" opacity="0.06"/>
    <path id="Path_43" data-name="Path 43" d="M167.831,466.565a75.95,75.95,0,0,0,10.471,6.31l.581.289a10.342,10.342,0,0,1,3.13,2,8.333,8.333,0,0,1,1.2,1.821,33.84,33.84,0,0,1,2.082,4.791,1.621,1.621,0,0,0,.617.954c.339.188.878.174,1.18.457-.271.339-.547.675-.832,1a38.072,38.072,0,0,1-7.159,6.492c-1.641,1.146-3.372,2.162-5.1,3.176l-3.194,1.87a19.869,19.869,0,0,1-4.17,2.024c-.557.17-1.146.3-1.711.461-.587-.9-1.172-1.8-1.773-2.665l-3.717-1.741a18.708,18.708,0,0,0,5.19-4.524,51.648,51.648,0,0,0,5.045-8.055,6.093,6.093,0,0,0,.621-1.437,4.95,4.95,0,0,0-.214-2.539,13.375,13.375,0,0,0-5.336-7.193,25.368,25.368,0,0,0-5.873-2.629,9.882,9.882,0,0,0-4.418-.763,9.947,9.947,0,0,1,.976-.946,1.746,1.746,0,0,1,1.417-.489c.549.078,1.07.158,1.6.248,1.068.329,2.118.721,3.162,1.124a14.579,14.579,0,0,1,2,.9,17.878,17.878,0,0,1,1.839,1.288,45.916,45.916,0,0,0,5.462,3.565c2.2,1.214,4.5,2.206,6.805,3.194a1.807,1.807,0,0,0,.789.2.615.615,0,0,0,.6-.467.749.749,0,0,0-.1-.415,4.151,4.151,0,0,0-2.126-1.625,51.131,51.131,0,0,1-9.363-6.388.885.885,0,0,1-.188-.2Z" transform="translate(-128.395 -385.204)" fill="#333"/>
    <circle id="Ellipse_7" data-name="Ellipse 7" cx="12.531" cy="12.531" r="12.531" transform="translate(54.875 67.136)" fill="#333"/>
    <path id="Path_44" data-name="Path 44" d="M395.187,561.9a26.9,26.9,0,0,0,6.787-2.835,40.1,40.1,0,0,0,4.009-3.29c.988-.846,2.018-1.645,2.925-2.579a30.484,30.484,0,0,0,2.276-2.759q2.4-3.146,4.965-6.173a9.967,9.967,0,0,1,3.164-2.771c2.274-1.068,4.943-.347,7.342.385a68.3,68.3,0,0,1,10.531,3.933c1.912.952,3.765,2.014,5.7,2.927a80.587,80.587,0,0,0,11.01,3.949,1.4,1.4,0,0,0,.878.072,1.29,1.29,0,0,0,.521-.435,7.437,7.437,0,0,0,1.156-2,.383.383,0,0,0-.094-.517,26.617,26.617,0,0,0-5.606-3.619c-1.541-.88-3.016-1.869-4.49-2.857a24.561,24.561,0,0,1-4.031-3.126c-.6-.617-1.138-1.3-1.787-1.861a14.964,14.964,0,0,0-1.817-1.274,73,73,0,0,1-8.129-6.023c-1.952-1.669-3.551-3.819-5.638-5.316a6.559,6.559,0,0,0-4.334-1.587c-1.9.2-3.31,1.8-4.637,3.174-4.462,4.633-10.091,7.949-15.07,12.024-4.065,3.322-7.864,7.269-12.814,9.021.222.735.3,1.469.523,2.2a22.947,22.947,0,0,0,1.04,2.963A23.3,23.3,0,0,0,390.947,556l1.984,3.24a8.193,8.193,0,0,0,1.387,1.851C394.618,561.375,395.187,561.479,395.187,561.9Z" transform="translate(-315.321 -432.356)" fill="#464353"/>
    <path id="Path_45" data-name="Path 45" d="M395.187,561.9a26.9,26.9,0,0,0,6.787-2.835,40.1,40.1,0,0,0,4.009-3.29c.988-.846,2.018-1.645,2.925-2.579a30.484,30.484,0,0,0,2.276-2.759q2.4-3.146,4.965-6.173a9.967,9.967,0,0,1,3.164-2.771c2.274-1.068,4.943-.347,7.342.385a68.3,68.3,0,0,1,10.531,3.933c1.912.952,3.765,2.014,5.7,2.927a80.587,80.587,0,0,0,11.01,3.949,1.4,1.4,0,0,0,.878.072,1.29,1.29,0,0,0,.521-.435,7.437,7.437,0,0,0,1.156-2,.383.383,0,0,0-.094-.517,26.617,26.617,0,0,0-5.606-3.619c-1.541-.88-3.016-1.869-4.49-2.857a24.561,24.561,0,0,1-4.031-3.126c-.6-.617-1.138-1.3-1.787-1.861a14.964,14.964,0,0,0-1.817-1.274,73,73,0,0,1-8.129-6.023c-1.952-1.669-3.551-3.819-5.638-5.316a6.559,6.559,0,0,0-4.334-1.587c-1.9.2-3.31,1.8-4.637,3.174-4.462,4.633-10.091,7.949-15.07,12.024-4.065,3.322-7.864,7.269-12.814,9.021.222.735.3,1.469.523,2.2a22.947,22.947,0,0,0,1.04,2.963A23.3,23.3,0,0,0,390.947,556l1.984,3.24a8.193,8.193,0,0,0,1.387,1.851C394.618,561.375,395.187,561.479,395.187,561.9Z" transform="translate(-315.321 -432.356)" opacity="0.06"/>
    <path id="Path_46" data-name="Path 46" d="M691.044,667.078a2.641,2.641,0,0,1,.4,2.2,3.831,3.831,0,0,0,2.448.721,7.686,7.686,0,0,0,2.531-.579,8.42,8.42,0,0,0,1.964-1.03,8.768,8.768,0,0,0,2.406-3.016c.337-.629.625-1.445.19-2.012a1.879,1.879,0,0,0-.6-.463,35.669,35.669,0,0,0-4.781-2.278,3.563,3.563,0,0,0-1.445-.325,3.1,3.1,0,0,0-1.659.747,8.982,8.982,0,0,0-2.577,3.194c-.188.4-.755,1.35-.475,1.761.128.19.6.256.8.373A2.584,2.584,0,0,1,691.044,667.078Z" transform="translate(-556.528 -541.341)" fill="#fbbebe"/>
    <path id="Path_47" data-name="Path 47" d="M701.3,670.616c3.378.629,6.484,2.26,9.8,3.14a32.6,32.6,0,0,1,4.011,1.122,5.46,5.46,0,0,1,3.046,2.691,7.733,7.733,0,0,1,.461,1.9,2.727,2.727,0,0,1-2.929,3.8c-3.51.419-7.019.836-10.541,1.132a18.88,18.88,0,0,0-2.122.253c-.579.118-1.144.292-1.719.427-.743.176-1.5.284-2.256.4a23.281,23.281,0,0,1-5.821.341,2.714,2.714,0,0,1-2.264-1.182,3.018,3.018,0,0,1-.2-1.3c0-1.184-.02-2.37,0-3.553a8.061,8.061,0,0,1,.629-3.561,1.422,1.422,0,0,1,.721-.749,1.657,1.657,0,0,1,.619-.056,7.31,7.31,0,0,1,3.04.543c.737.365,1.268-.727,2.018-.4,1.423.629.459-1.278,1.9-.685.335-1.034,1.761-.419,1.513-1.479s.641-.6.539-1.689a2.036,2.036,0,0,0-.136-.695C701.5,670.8,701.539,670.582,701.3,670.616Z" transform="translate(-557.645 -549.603)" fill="#464353"/>
    <path id="Path_48" data-name="Path 48" d="M162.42,333.826a4.964,4.964,0,0,1-2.637.347,16.4,16.4,0,0,0-2.362.122,2.23,2.23,0,0,0-.812.216,2.032,2.032,0,0,0-.755.88,6.24,6.24,0,0,0-.637,1.96,4.5,4.5,0,0,1-.579,2.218c-.653.828-1.671.7-2.6.864a6.989,6.989,0,0,0-2.278.87,5.628,5.628,0,0,0-2.639,3.875c-.026.182-.044.361-.052.543-.02.515.032,1.04-.036,1.545a2.689,2.689,0,0,1-.076.373.8.8,0,0,1-.034.106c-.03-.234-.064-.463-.1-.693a10.194,10.194,0,0,1-1.569-2.062,1.535,1.535,0,0,1-.277-.439,11.726,11.726,0,0,1-1.088-4.677,10.251,10.251,0,0,1,18.528-6.049Z" transform="translate(-119.944 -276.686)" opacity="0.06"/>
    <path id="Path_49" data-name="Path 49" d="M110.381,311.527a6.249,6.249,0,0,0-2.711-2.691,14.759,14.759,0,0,0-7.287-2.166,22.018,22.018,0,0,0-7.456,1.423,12.851,12.851,0,0,0-4.953,3.657,4.986,4.986,0,0,0-.828.134,8.35,8.35,0,0,0-2.957,1.545,9.411,9.411,0,0,0-1.968,1.922,8.261,8.261,0,0,0-1.328,3.12c-.761,3.506.176,7.123.862,10.642s1.088,7.364-.6,10.527c-.637,1.2-1.541,2.216-2.22,3.382a5.025,5.025,0,0,0-.745,3.863c.459,1.573,2,2.571,2.811,3.987a4.791,4.791,0,0,1-.932,5.733,4.621,4.621,0,0,0,3.821-.737,6.752,6.752,0,0,0,2.25-2.134c1.435-2.324.8-5.324,1.3-8.009.665-3.514,3.348-6.648,2.979-10.205-.25-2.4-1.831-4.382-3.074-6.436a25.219,25.219,0,0,1-2.082-4.318,6.52,6.52,0,0,1-.525-3.35,4.51,4.51,0,0,1,.313-1v.114a7.648,7.648,0,0,0,.683,2.994c1.485,3.034,5.44,4.152,7.115,7.085a4.728,4.728,0,0,0,1.2-1.787,8.2,8.2,0,0,0,.112-1.92,5.565,5.565,0,0,1,2.691-4.416,6.915,6.915,0,0,1,2.278-.868c.922-.166,1.94-.04,2.6-.868a4.49,4.49,0,0,0,.581-2.216,6.2,6.2,0,0,1,.637-1.962,2.014,2.014,0,0,1,.755-.878,2.2,2.2,0,0,1,.814-.216,16.361,16.361,0,0,1,2.36-.122,4.9,4.9,0,0,0,2.671-.365A2.819,2.819,0,0,0,110.381,311.527Z" transform="translate(-67.248 -258.315)" fill="#464353"/>
    <path id="Path_50" data-name="Path 50" d="M748.117,255.967v.082c-.361,3.114-3.356,2.971-4.054,7.877-.276,1.922-3.194,2.278-5.113,2.795-.828-.279-1.667-.521-2.5-.823-1.916-.693-.577-1.733.244-2.851,2.685-3.661,3.194-8.664,6.242-12.028a11.241,11.241,0,0,0,5.047,4.881A.72.72,0,0,0,748.117,255.967Z" transform="translate(-593.428 -213.774)" opacity="0.06"/>
    <path id="Path_51" data-name="Path 51" d="M698.681,216.615a12.687,12.687,0,0,1-.08,1.413,12.531,12.531,0,1,1,.08-1.413Z" transform="translate(-543.921 -176.209)" fill="#a1616a"/>
    <path id="Path_52" data-name="Path 52" d="M771.644,273.846a9.754,9.754,0,0,1,4.14,1.046c5.256,2.2,10.557,4.41,15.254,7.634a84.049,84.049,0,0,1,6.6,5.228l8.8,7.478a31.859,31.859,0,0,1,4.751,4.641,31.515,31.515,0,0,1,2.182,3.394l1.306,2.226a19.954,19.954,0,0,1,1.4,2.725c.671,1.719.92,3.723,2.274,4.979a13.2,13.2,0,0,0,3.27,1.745,3.412,3.412,0,0,1,2.178,2.777,5.244,5.244,0,0,1-.846,2.236,8.963,8.963,0,0,0-.91,4.857l-14.393-11a4.891,4.891,0,0,0-1.877-1.036,5.105,5.105,0,0,0-2.729.457,52.913,52.913,0,0,1-21.7,2.853,22.8,22.8,0,0,1-9.4-2.431,29.166,29.166,0,0,1-4.352-3.194,53.317,53.317,0,0,1-4.991-4.548,3.216,3.216,0,0,1-.916-1.517,5.03,5.03,0,0,1,.054-1.294c.251-3.028-2.264-5.55-3.03-8.49a7.785,7.785,0,0,1,2.438-7.72c1.715,1.5,1.653,4.138,1.453,6.408-.27,3.056.585,4.572.315,7.63,1.086-.04.888.659,1.351-.325a9.11,9.11,0,0,0,.641-3.178q.481-5.881,1.168-11.742c.228-1.954.487-3.9.737-5.857a8.079,8.079,0,0,1,.759-3.352A5.14,5.14,0,0,1,771.644,273.846Z" transform="translate(-611.844 -232.039)" fill="#333"/>
    <path id="Path_53" data-name="Path 53" d="M805.019,291.21a4.877,4.877,0,0,1,2.817.25q2.435.723,4.843,1.527a13.126,13.126,0,0,1,3.751,1.731,20.526,20.526,0,0,1,4.43,5.855,14.025,14.025,0,0,1,.8,3.965,5.2,5.2,0,0,1-.022,1.751,4.253,4.253,0,0,1-.964,1.683,11.512,11.512,0,0,1-2.368,2.122,22.157,22.157,0,0,1-7.957,2.821,52.37,52.37,0,0,1-7.476,1.154,3.1,3.1,0,0,1-2.717-.775,3.058,3.058,0,0,1-.4-.787,29.772,29.772,0,0,1-1.87-12.223,9.007,9.007,0,0,1,.349-2.24,16.049,16.049,0,0,1,3.625-5.558,7.655,7.655,0,0,1,4.821-1.25" transform="translate(-643.34 -245.842)" fill="#a1616a"/>
    <path id="Path_54" data-name="Path 54" d="M759.658,322.021a3.317,3.317,0,0,0-1.158,2.493c-.425,4.007,1.228,7.973,1.118,12-.088,3.194-1.282,6.26-2.459,9.241a55.006,55.006,0,0,0-3.46,16.058c-.405,5.452-1,11.129-3.925,15.741-.665,1.044-1.439,2.014-2.09,3.064-.683,1.1-1.224,2.276-1.827,3.418a36.772,36.772,0,0,1-6.787,9.117,9.365,9.365,0,0,1-2.663,1.982,5.361,5.361,0,0,1-4.164.044,3.98,3.98,0,0,1-2.571-3.316,5.9,5.9,0,0,1,1.529-3.571,58.62,58.62,0,0,1,9.183-9.734,5.286,5.286,0,0,0,1.6-1.811,8.1,8.1,0,0,0,.26-2.769,24.354,24.354,0,0,1,1-4.348c1.4-5.887-1.086-12.315.934-18.019a18.15,18.15,0,0,0,1.274-3.815,3.635,3.635,0,0,0-.7-2.679,3.533,3.533,0,0,1-.866-2.268,3.906,3.906,0,0,1,.022-.509,55.057,55.057,0,0,0,.353-7.859,18.43,18.43,0,0,0-1.863-7.586,21.559,21.559,0,0,1-1.825-3.641,9.219,9.219,0,0,1,.88-6.388,11.145,11.145,0,0,1,3.04-4.118,8.145,8.145,0,0,1,9.005-.573,13.3,13.3,0,0,1,4.534,5.318C758.829,319.009,759.68,320.292,759.658,322.021Z" transform="translate(-588.782 -261.848)" opacity="0.06"/>
    <path id="Path_55" data-name="Path 55" d="M761.937,322.021a3.316,3.316,0,0,0-1.158,2.493c-.425,4.007,1.228,7.973,1.118,12-.088,3.194-1.282,6.26-2.459,9.241a55.07,55.07,0,0,0-3.46,16.058c-.407,5.452-1,11.129-3.925,15.741-.665,1.044-1.437,2.014-2.09,3.064-.681,1.1-1.224,2.276-1.827,3.418a36.817,36.817,0,0,1-6.787,9.117,9.376,9.376,0,0,1-2.665,1.982,5.362,5.362,0,0,1-4.164.044,3.981,3.981,0,0,1-2.569-3.316,5.88,5.88,0,0,1,1.529-3.571,58.613,58.613,0,0,1,9.183-9.734,5.265,5.265,0,0,0,1.6-1.811,8.047,8.047,0,0,0,.26-2.769,24.352,24.352,0,0,1,1-4.348c1.4-5.887-1.086-12.315.934-18.019a18.157,18.157,0,0,0,1.276-3.815,3.644,3.644,0,0,0-.7-2.679,3.514,3.514,0,0,1-.89-2.268,3.916,3.916,0,0,1,.022-.509,55.342,55.342,0,0,0,.351-7.859,18.428,18.428,0,0,0-1.863-7.586,21.547,21.547,0,0,1-1.825-3.641,9.22,9.22,0,0,1,.88-6.388,11.167,11.167,0,0,1,3.04-4.118,8.144,8.144,0,0,1,9.005-.573,13.3,13.3,0,0,1,4.534,5.318C761.1,319.009,761.951,320.292,761.937,322.021Z" transform="translate(-590.606 -261.848)" fill="#a1616a"/>
    <path id="Path_56" data-name="Path 56" d="M982.612,627l-.172.052" transform="translate(-791.092 -514.697)" fill="#464353"/>
    <path id="Path_57" data-name="Path 57" d="M808.15,670.82a1.477,1.477,0,0,1,.036-.2" transform="translate(-651.596 -549.609)" fill="#464353"/>
    <path id="Path_58" data-name="Path 58" d="M1004.763,595.336a4.42,4.42,0,0,1,2.314-1.184,23.238,23.238,0,0,1,4.192-.683,7.839,7.839,0,0,1,2.627.162,3.385,3.385,0,0,1,2.088,1.509,5.248,5.248,0,0,1,.491,2.262,20.68,20.68,0,0,1-.064,4.767c-.17,1-.487,1.964-.693,2.955-.667,3.246-.088,6.606-.148,9.92a5.126,5.126,0,0,1-.357,2.072,5.762,5.762,0,0,1-1.445,1.709,9.164,9.164,0,0,1-1.974,1.479,8.5,8.5,0,0,1-3.577.679,5.478,5.478,0,0,1-2.2-.25,2.045,2.045,0,0,1-1.352-1.633c-.08-1.264,1.346-2.09,1.753-3.288a3.568,3.568,0,0,0-.563-2.877,9.1,9.1,0,0,0-3.416-3.3,7.242,7.242,0,0,1-1.515-.934,1.605,1.605,0,0,1-.545-1.6,1.906,1.906,0,0,1,1.727-1.066,5.927,5.927,0,0,0,2.106-.333,2.879,2.879,0,0,0,1.242-1.4,5.19,5.19,0,0,0,.226-3.907,4.8,4.8,0,0,0-.743-1.351c-.3-.383-.914-.707-1.128-1.126C1003.434,597.165,1004.254,595.935,1004.763,595.336Z" transform="translate(-805.408 -487.824)" fill="#333"/>
    <path id="Path_59" data-name="Path 59" d="M839.527,430.043c-3.3-2.915-7.9-3.707-12.207-4.591q-3.332-.681-6.632-1.517a24.738,24.738,0,0,0-4.392-.86,7.441,7.441,0,0,0-4.32.87,4.436,4.436,0,0,0-2.256,3.635c0,.6.142,1.186.1,1.779a9.255,9.255,0,0,1-.96,2.689,7.067,7.067,0,0,0-.241,4.424c.639,2.33,2.479,4.382,2.32,6.787a45.479,45.479,0,0,0,.643,12.178c.826,3.943,1.859,7.9,1.835,11.938s-1.246,8.277-4.258,10.964a16.455,16.455,0,0,0,7.253,3.963c2.322.581,5.083.523,6.736-1.208a1.863,1.863,0,0,0,.621-1.481,2.9,2.9,0,0,0-.429-.968c-1.136-2.034-1-4.542-.5-6.813a56.3,56.3,0,0,0,1.581-6.8c.16-1.683-.02-3.394.3-5.055.247-1.272.783-2.469,1.1-3.725.948-3.725-.048-7.636-1.038-11.347a12.881,12.881,0,0,0,4.017,4.687c2.459,1.96,5.434,3.691,8.56,3.344,2.783-.311,5.152-2.246,6.788-4.516.014-2.625.924-5.107.762-7.726a19.593,19.593,0,0,0-.615-3.4,16.9,16.9,0,0,0-1.2-3.647C842.338,432.123,840.8,431.167,839.527,430.043Z" transform="translate(-651.773 -351.461)" opacity="0.06"/>
    <path id="Path_60" data-name="Path 60" d="M842.96,430.043c-3.3-2.915-7.893-3.707-12.208-4.591q-3.332-.681-6.63-1.517a24.772,24.772,0,0,0-4.392-.86,7.438,7.438,0,0,0-4.318.87,4.431,4.431,0,0,0-2.256,3.635c0,.6.14,1.186.1,1.779a9.495,9.495,0,0,1-.96,2.689,7.068,7.068,0,0,0-.24,4.424c.637,2.33,2.478,4.382,2.32,6.787a45.4,45.4,0,0,0,.641,12.178c.827,3.943,1.859,7.9,1.835,11.938s-1.254,8.263-4.268,10.946a16.466,16.466,0,0,0,7.253,3.963c2.322.581,5.085.523,6.736-1.208a1.863,1.863,0,0,0,.621-1.481,2.9,2.9,0,0,0-.429-.968c-1.136-2.034-1-4.542-.5-6.813a56.676,56.676,0,0,0,1.583-6.8c.158-1.683-.022-3.394.3-5.055.246-1.272.783-2.469,1.1-3.725.948-3.725-.046-7.636-1.038-11.347a12.868,12.868,0,0,0,4.019,4.687c2.459,1.96,5.432,3.691,8.558,3.344,2.783-.311,5.153-2.246,6.787-4.516.012-2.625.922-5.107.761-7.726a19.621,19.621,0,0,0-.615-3.4,16.792,16.792,0,0,0-1.2-3.647C845.783,432.123,844.234,431.167,842.96,430.043Z" transform="translate(-654.523 -351.461)" fill="#a1616a"/>
    <path id="Path_61" data-name="Path 61" d="M751.342,687.843a12.467,12.467,0,0,1-3.715-3.48,9.8,9.8,0,0,0-1.118-1.465,2.16,2.16,0,0,0-1.657-.681,2.7,2.7,0,0,0-1.687,1.142c-1.178,1.459-1.937,3.244-3.244,4.592a11.863,11.863,0,0,1-5.717,2.931c-2.1.535-4.272.816-6.332,1.493a2.887,2.887,0,0,0-1.677,1.084,2.421,2.421,0,0,0,.268,2.459,7.214,7.214,0,0,0,3.887,2.833,35.15,35.15,0,0,0,4.791,1.064c2.847.557,5.763,1.449,8.6.82,1.13-.252,2.2-.739,3.338-.95,2.6-.483,5.272.493,7.877.1a12.331,12.331,0,0,0,3.594-1.26,4.953,4.953,0,0,0,1.537-1.044,1.881,1.881,0,0,0,.5-1.719,6.95,6.95,0,0,0-.473-.962,4.953,4.953,0,0,1-.339-1.621,44.4,44.4,0,0,0-1.094-6.245,2.542,2.542,0,0,0-1.112-1.829.6.6,0,0,0-.445-.05c-.237.09-.315.377-.387.619a3.809,3.809,0,0,1-6.624,1.314" transform="translate(-585.815 -558.884)" fill="#333"/>
    <path id="Path_62" data-name="Path 62" d="M701.459,216.623a12.687,12.687,0,0,1-.08,1.413,4.042,4.042,0,0,1-3.474-1.156c-.421-.447-.737-.988-1.154-1.439a1.761,1.761,0,0,0-2.9-.042,4.248,4.248,0,0,0-.972,1.719,2.343,2.343,0,0,1-.575,1.27,1.819,1.819,0,0,1-1.282.265,3.822,3.822,0,0,1-1.685-.319c-.958-.517-1.282-1.7-1.637-2.731-.6-1.731-1.946-5-4.041-5.354a4.425,4.425,0,0,0-2.994.93,5.362,5.362,0,0,1-3.575,1.387h0a12.533,12.533,0,0,1,24.389,4.057Z" transform="translate(-546.7 -176.217)" opacity="0.06"/>
    <path id="Path_63" data-name="Path 63" d="M666.582,185.17a3.011,3.011,0,0,1-1.058-.168A2.855,2.855,0,0,1,664,182.469a11.347,11.347,0,0,1,.928-4.623,1.532,1.532,0,0,1,.537-.856,1.863,1.863,0,0,1,.756-.19,7.158,7.158,0,0,0,3.735-2.058,30.545,30.545,0,0,1,3.194-2.915,8.542,8.542,0,0,1,10.5.908c1.074,1.054,2,2.483,3.486,2.731.858.142,1.779-.154,2.6.166a3.062,3.062,0,0,1,1.37,1.3,12.934,12.934,0,0,1,1.811,5.887,38.423,38.423,0,0,1-.148,6.211,1.62,1.62,0,0,1-.229.88,1.342,1.342,0,0,1-.469.359,4.031,4.031,0,0,1-4.65-.783c-.423-.445-.737-.986-1.154-1.439a1.762,1.762,0,0,0-2.9-.04,4.249,4.249,0,0,0-.972,1.719,2.316,2.316,0,0,1-.575,1.268,1.832,1.832,0,0,1-1.284.268,3.82,3.82,0,0,1-1.683-.321c-.96-.515-1.284-1.7-1.637-2.729-.6-1.731-1.944-5.007-4.041-5.354a4.415,4.415,0,0,0-2.994.93A5.439,5.439,0,0,1,666.582,185.17Z" transform="translate(-536.209 -149.278)" fill="#464353"/>
    <path id="Path_64" data-name="Path 64" d="M273.359,609.563c-.138.91-.972,1.621-1.561,2.328-1.6,1.932-3.224,3.871-5.015,5.64a78.5,78.5,0,0,1-6.123,5.26l-2.727,2.182a3.433,3.433,0,0,1-1.16.7,2.119,2.119,0,0,1-1.493-.178c.04-.08.082-.154.128-.228l3.27-5.48c.643-1.074,1.064-2.052,1.8-3.06a30.5,30.5,0,0,1,3.577-4.306,30.975,30.975,0,0,1,5.967-3.965,1.713,1.713,0,0,1,2.37-.713,2.964,2.964,0,0,1,.824.633A2.36,2.36,0,0,1,273.359,609.563Z" transform="translate(-209.097 -499.124)" opacity="0.06"/>
    <path id="Path_65" data-name="Path 65" d="M259.419,553.788l-3.27,5.482a.775.775,0,0,0,.186,1.242c1.254,1.02,2.643,2.1,3.036,3.663.281,1.118,0,2.316.252,3.438.461,2.024,2.5,3.254,4.42,4.032a25.019,25.019,0,0,0,13.681,1.6,20.047,20.047,0,0,0,11.9-6.736c.91-1.1,1.689-2.308,2.553-3.446a54.737,54.737,0,0,1,8.452-8.281c3.883-3.29,6.171-8.2,9.582-11.978a4.783,4.783,0,0,1,2.2-1.625c.5-.126,1.2.06,1.218.575.046,1,.848,1.815,1.4,2.649,2.068,3.162,4.232,6.422,7.428,8.438a23.635,23.635,0,0,0,5.708,2.4c5.011,1.561,10.119,2.795,15.222,4.017a8.538,8.538,0,0,1,.922-1.455c.529-.649,1.226-1.144,1.757-1.8a9.481,9.481,0,0,0,1.625-4.224c-3.048-1.867-6.177-3.793-9.183-5.733a21.67,21.67,0,0,1-4.262-3.288c-.8-.866-1.469-1.859-2.27-2.731a23.16,23.16,0,0,0-2.639-2.342l-7.187-5.755c-2.064-1.651-4.168-3.394-6.189-5.1-1.136-.962-2.4-1.974-3.881-2.02a6.757,6.757,0,0,0-3.535,1.3q-9.638,5.771-19.564,11.024c-1.34.707-2.685,1.409-3.963,2.222a26.707,26.707,0,0,0-6.532,5.865c-.337.421-.765.9-1.3.836a1.17,1.17,0,0,1-.417-.146,5.09,5.09,0,0,1-1.8-2.1,4.87,4.87,0,0,0-1.825-2.078,1.713,1.713,0,0,0-2.37.715,32.491,32.491,0,0,0-5.971,3.989,30.378,30.378,0,0,0-3.577,4.306C260.483,551.738,260.06,552.716,259.419,553.788Z" transform="translate(-209.61 -432.901)" fill="#464353"/>
    <path id="Path_66" data-name="Path 66" d="M246.61,502.52a40.242,40.242,0,0,1,5.646,3.106" transform="translate(-202.157 -415.067)" opacity="0.06"/>
    <path id="Path_67" data-name="Path 67" d="M969.447,461.092c.06,1.863.108,3.729.086,5.59a6.093,6.093,0,0,1-.527,2.879,6.266,6.266,0,0,1-1.4,1.581l-3.288,2.981a7.327,7.327,0,0,1-3.479,2.118c-1.555.263-3.074-.493-4.57-1a15,15,0,0,0-4.671-.785,17.252,17.252,0,0,1-2.727-.072,11.175,11.175,0,0,1-1.9-.541L944,472.814c.084-.749.8-1.226,1.4-1.7,2.126-1.725,3.058-4.5,3.729-7.151a42.649,42.649,0,0,0,1.162-6.31,10.359,10.359,0,0,0-.074-3.162,12.561,12.561,0,0,0-.878-2.424l-1.044-2.354c-.6-1.33-1.8-1.92-3.016-2.705,1.84.7,4.084.972,5.484,2.358a3.631,3.631,0,0,0,.946.767,4.48,4.48,0,0,0,1.232.267c2.078.311,3.845,1.617,5.562,2.825q3.152,2.22,6.48,4.17a15.239,15.239,0,0,1,2.869,1.964,4.627,4.627,0,0,1,1.553,3.026" transform="translate(-760.326 -370.639)" fill="#464353"/>
    <path id="Path_68" data-name="Path 68" d="M159.328,446.027c-2.617.517-3.979,3.593-3.825,6.254a10.181,10.181,0,0,0,2.759,6.358c1.092,1.148,2.453,2.034,3.44,3.274,1.457,1.829,1.964,4.246,3.268,6.189a16.858,16.858,0,0,0,3.593,3.575q4.564,3.641,9.425,6.893a7.869,7.869,0,0,0,4.344,1.737,5.416,5.416,0,0,0,3.843-2.042,16.392,16.392,0,0,0,2.23-3.869c2.28-4.971,4.576-10,5.666-15.354a19.859,19.859,0,0,1,1.334-4.957,24.06,24.06,0,0,1,2.276-3.306,22.805,22.805,0,0,0,3.849-8.6,11.093,11.093,0,0,0-.134-6.129,5.573,5.573,0,0,0-4.516-3.767,5.489,5.489,0,0,0-4.338,1.938,10.73,10.73,0,0,0-2.186,4.358,20.874,20.874,0,0,0-.719,6.987,23.884,23.884,0,0,1,.188,5.691,15.245,15.245,0,0,1-1.379,3.777,40.306,40.306,0,0,1-5.2,8.983c-.727.866-1.727,1.743-2.839,1.539-1.537-.28-1.944-2.226-2.7-3.593-.93-1.677-2.7-2.685-4.078-4.017-1.968-1.9-3.148-4.44-4.548-6.787s-3.21-4.665-5.789-5.566-6.017.256-6.68,2.907" transform="translate(-129.229 -358.843)" opacity="0.06"/>
    <path id="Path_69" data-name="Path 69" d="M161.366,444.2c-2.619.517-5.953.854-5.789,3.519a10.161,10.161,0,0,0,2.759,6.358c1.092,1.15,2.453,2.036,3.44,3.276,1.457,1.829,1.964,4.244,3.268,6.189a16.766,16.766,0,0,0,3.593,3.575q4.564,3.643,9.425,6.893a7.857,7.857,0,0,0,4.344,1.739,5.423,5.423,0,0,0,3.843-2.042,16.325,16.325,0,0,0,2.23-3.871c2.28-4.971,4.576-10,5.666-15.354a19.846,19.846,0,0,1,1.334-4.955,24.21,24.21,0,0,1,2.276-3.308,22.782,22.782,0,0,0,3.849-8.6,11.1,11.1,0,0,0-.134-6.131,5.573,5.573,0,0,0-4.516-3.767,5.5,5.5,0,0,0-4.338,1.938,10.714,10.714,0,0,0-2.186,4.36,20.869,20.869,0,0,0-.719,6.987,23.891,23.891,0,0,1,.188,5.691,15.231,15.231,0,0,1-1.379,3.779,40.353,40.353,0,0,1-5.2,8.983c-.727.866-1.727,1.741-2.839,1.539-1.537-.281-1.944-2.228-2.7-3.593-.93-1.677-2.7-2.685-4.078-4.017-1.968-1.894-3.148-4.44-4.548-6.787s-3.21-4.663-5.789-5.566.651,4.877-.014,7.528" transform="translate(-129.293 -355.194)" opacity="0.06"/>
    <path id="Path_70" data-name="Path 70" d="M159.328,443.752c-2.617.517-3.979,3.593-3.825,6.254a10.181,10.181,0,0,0,2.759,6.36c1.092,1.148,2.453,2.034,3.44,3.274,1.457,1.829,1.964,4.246,3.268,6.189a16.822,16.822,0,0,0,3.593,3.577q4.564,3.641,9.425,6.891a7.857,7.857,0,0,0,4.344,1.739,5.416,5.416,0,0,0,3.843-2.042,16.391,16.391,0,0,0,2.23-3.869c2.28-4.971,4.576-10,5.666-15.356a19.845,19.845,0,0,1,1.334-4.955,24.2,24.2,0,0,1,2.276-3.308,22.782,22.782,0,0,0,3.849-8.6,11.1,11.1,0,0,0-.134-6.131,5.568,5.568,0,0,0-4.516-3.765,5.482,5.482,0,0,0-4.338,1.938,10.731,10.731,0,0,0-2.186,4.358,20.874,20.874,0,0,0-.719,6.987,23.871,23.871,0,0,1,.188,5.69,15.228,15.228,0,0,1-1.379,3.779,40.309,40.309,0,0,1-5.2,8.983c-.727.866-1.727,1.741-2.839,1.539-1.537-.281-1.944-2.226-2.7-3.593-.93-1.679-2.7-2.687-4.078-4.017-1.968-1.9-3.148-4.44-4.548-6.788s-3.21-4.663-5.789-5.564-6.017.255-6.68,2.907" transform="translate(-129.229 -357.025)" fill="#fbbebe"/>
    <g id="Group_6" data-name="Group 6" transform="translate(12.821 48.685)" opacity="0.06">
      <path id="Path_71" data-name="Path 71" d="M95.435,382.351a25.218,25.218,0,0,1-2.082-4.318l-.068-.2a6.468,6.468,0,0,1-1.052-1.515,7.638,7.638,0,0,1-.683-2.995q0-.057,0-.114a4.51,4.51,0,0,0-.313,1,6.544,6.544,0,0,0,.525,3.35,25.289,25.289,0,0,0,2.082,4.318c1.24,2.072,2.823,4.069,3.068,6.446.369,3.557-2.314,6.69-2.977,10.205-.507,2.685.136,5.686-1.3,8.009a6.725,6.725,0,0,1-2.25,2.132,6.363,6.363,0,0,1-1.843.8,4.279,4.279,0,0,1-.383.4,4.621,4.621,0,0,0,3.821-.737A6.751,6.751,0,0,0,94.231,407c1.435-2.324.8-5.324,1.3-8.009.665-3.513,3.348-6.648,2.979-10.205C98.259,386.39,96.678,384.4,95.435,382.351Z" transform="translate(-88.16 -360.256)"/>
      <path id="Path_72" data-name="Path 72" d="M166.006,312.848a6.248,6.248,0,0,0-2.711-2.691,15.692,15.692,0,0,0-4.554-1.837A16.276,16.276,0,0,1,161.7,309.7a6.279,6.279,0,0,1,2.713,2.693,2.8,2.8,0,0,1-.85,3.458,4.917,4.917,0,0,1-2.671.365,16.072,16.072,0,0,0-2.36.12,2.27,2.27,0,0,0-.815.216,2.026,2.026,0,0,0-.755.888,6.2,6.2,0,0,0-.639,1.962,4.5,4.5,0,0,1-.581,2.216c-.651.828-1.669.7-2.6.866a6.988,6.988,0,0,0-2.278.87,5.553,5.553,0,0,0-2.691,4.416,8.186,8.186,0,0,1-.11,1.918,3.166,3.166,0,0,1-.519,1,6.807,6.807,0,0,1,.922,1.244,4.728,4.728,0,0,0,1.2-1.787,8.205,8.205,0,0,0,.112-1.92,5.565,5.565,0,0,1,2.691-4.416,6.913,6.913,0,0,1,2.278-.868c.922-.166,1.94-.04,2.6-.868a4.49,4.49,0,0,0,.581-2.216,6.2,6.2,0,0,1,.637-1.962,2.014,2.014,0,0,1,.755-.878,2.2,2.2,0,0,1,.814-.216,16.348,16.348,0,0,1,2.36-.122,4.9,4.9,0,0,0,2.671-.365A2.816,2.816,0,0,0,166.006,312.848Z" transform="translate(-135.694 -308.32)"/>
    </g>
    <path id="Path_73" data-name="Path 73" d="M174.52,426.55s2.358,2.028,6.835.8C181.355,427.345,178.583,428.437,174.52,426.55Z" transform="translate(-144.459 -354.263)" opacity="0.06"/>
    <path id="Path_74" data-name="Path 74" d="M692.583,230.026a1.626,1.626,0,0,1-.24.874,1.334,1.334,0,0,1-.469.357,4.027,4.027,0,0,1-4.647-.781c-.423-.447-.737-1-1.154-1.439a2.123,2.123,0,0,0-1.6-.779,2.1,2.1,0,0,0-1.3.737,4.321,4.321,0,0,0-.972,1.719,2.321,2.321,0,0,1-.573,1.27,1.819,1.819,0,0,1-1.284.266,3.781,3.781,0,0,1-1.683-.319c-.96-.515-1.284-1.7-1.639-2.729-.6-1.733-1.944-5.007-4.039-5.356a4.432,4.432,0,0,0-2.994.93,5.423,5.423,0,0,1-3.577,1.4,3.052,3.052,0,0,1-1.058-.168,2.735,2.735,0,0,1-1.489-2.246,6.655,6.655,0,0,0-.034,1.308,2.865,2.865,0,0,0,1.523,2.533,3.053,3.053,0,0,0,1.058.168,5.367,5.367,0,0,0,3.577-1.387,4.428,4.428,0,0,1,2.994-.93c2.086.339,3.444,3.613,4.031,5.344.355,1.03.679,2.216,1.639,2.731a3.809,3.809,0,0,0,1.683.319,1.883,1.883,0,0,0,1.284-.266,2.476,2.476,0,0,0,.573-1.27,4.309,4.309,0,0,1,.972-1.719,2.106,2.106,0,0,1,1.3-.737,2.033,2.033,0,0,1,1.6.779c.4.453.731,1,1.154,1.439a4.027,4.027,0,0,0,4.648.781,1.36,1.36,0,0,0,.469-.357,1.629,1.629,0,0,0,.24-.876,47.558,47.558,0,0,0,.2-5.059C692.758,227.717,692.673,228.873,692.583,230.026Z" transform="translate(-536.073 -191.956)" opacity="0.06"/>
    <path id="Path_75" data-name="Path 75" d="M86.03,658.94s.317-.353-.279-.493v-.581h.359a3.064,3.064,0,0,0-2.43-2.994v-.7h.094v-.916h-2.31v.916h.066v.713a3.066,3.066,0,0,0-2.4,2.995h.317v.557s-.757.357,0,1,.639,1.1.639,1.1-.317,1.2-.954,1.354v11.105a2.467,2.467,0,0,0,2.467,2.469h1.95a2.469,2.469,0,0,0,2.469-2.469V661.886s-1.116-.836-.916-1.354A12.493,12.493,0,0,1,86.03,658.94Z" transform="translate(-68.1 -535.706)" fill="#464353"/>
  </g>
</svg>
